<svg width="216" height="513" viewBox="0 0 216 513" fill="none" xmlns="http://www.w3.org/2000/svg">
<path fill-rule="evenodd" clip-rule="evenodd" d="M102.986 0.5C102.986 0.775 102.086 1 100.986 1C99.8859 1 98.9859 1.225 98.9859 1.5C98.9859 1.775 98.5359 2 97.9859 2C97.4359 2 96.9859 2.225 96.9859 2.5C96.9859 2.775 96.5359 3 95.9859 3C95.4359 3 94.9859 3.225 94.9859 3.5C94.9859 3.775 94.6264 4 94.1864 4C93.7469 4 92.7564 4.675 91.9859 5.5C91.2154 6.325 90.3274 7 90.0124 7C89.2244 7 86.9859 9.305 86.9859 10.117C86.9859 10.481 86.5359 11.1035 85.9859 11.5C85.4359 11.8965 84.9859 12.621 84.9859 13.1105C84.9859 13.5995 84.7609 14 84.4859 14C84.2109 14 83.9859 14.675 83.9859 15.5C83.9859 16.325 83.7609 17 83.4859 17C83.2109 17 82.9859 17.9 82.9859 19C82.9859 20.1 82.7609 21 82.4859 21C82.1784 21 81.9859 23.5 81.9859 27.5C81.9859 33.076 81.8744 34 81.2004 34C79.7934 34 78.9859 35.355 78.9859 37.7145C78.9859 38.9715 79.2109 40 79.4859 40C79.7609 40 79.9859 40.58 79.9859 41.289C79.9859 42.1395 80.6664 43.2325 81.9859 44.5C83.3054 45.7675 83.9859 46.8605 83.9859 47.711C83.9859 48.42 84.2109 49 84.4859 49C84.7609 49 84.9859 49.675 84.9859 50.5C84.9859 51.325 85.2109 52 85.4859 52C85.7609 52 85.9859 52.4005 85.9859 52.8895C85.9859 53.379 86.4359 54.1035 86.9859 54.5C87.5359 54.8965 87.9859 55.621 87.9859 56.1105C87.9859 56.5995 88.2109 57 88.4859 57C88.7954 57 88.9859 59.6665 88.9859 64C88.9859 68.3335 88.7954 71 88.4859 71C88.2109 71 87.9859 71.675 87.9859 72.5C87.9859 73.325 87.7609 74 87.4859 74C87.2109 74 86.9859 74.3475 86.9859 74.7725C86.9859 75.7175 84.7814 78 83.8689 78C83.5049 78 82.8824 78.45 82.4859 79C82.0894 79.55 81.3649 80 80.8754 80C80.3864 80 79.9859 80.225 79.9859 80.5C79.9859 80.775 79.5359 81 78.9859 81C78.4359 81 77.9859 81.225 77.9859 81.5C77.9859 81.775 77.3109 82 76.4859 82C75.6609 82 74.9859 82.225 74.9859 82.5C74.9859 82.775 74.3109 83 73.4859 83C72.6609 83 71.9859 83.225 71.9859 83.5C71.9859 83.775 70.8609 84 69.4859 84C68.1109 84 66.9859 84.225 66.9859 84.5C66.9859 84.778 65.6524 85 63.9859 85C62.3194 85 60.9859 85.222 60.9859 85.5C60.9859 85.775 60.0859 86 58.9859 86C57.8859 86 56.9859 86.225 56.9859 86.5C56.9859 86.775 56.5359 87 55.9859 87C55.4359 87 54.9859 87.225 54.9859 87.5C54.9859 87.775 54.5359 88 53.9859 88C53.4359 88 52.9859 88.225 52.9859 88.5C52.9859 88.775 52.6444 89 52.2264 89C51.2379 89 44.9859 95.252 44.9859 96.2405C44.9859 96.6585 44.7609 97 44.4859 97C44.2109 97 43.9859 97.45 43.9859 98C43.9859 98.55 43.7609 99 43.4859 99C43.2109 99 42.9859 99.45 42.9859 100C42.9859 100.55 42.7609 101 42.4859 101C42.2109 101 41.9859 101.45 41.9859 102C41.9859 102.55 41.7609 103 41.4859 103C41.2109 103 40.9859 103.9 40.9859 105C40.9859 106.1 40.7609 107 40.4859 107C40.2109 107 39.9859 108.125 39.9859 109.5C39.9859 110.875 39.7609 112 39.4859 112C39.1599 112 38.9859 120.167 38.9859 135.5C38.9859 150.833 38.8119 159 38.4859 159C38.2004 159 37.9859 160.5 37.9859 162.5C37.9859 164.5 37.7714 166 37.4859 166C37.2109 166 36.9859 167.125 36.9859 168.5C36.9859 169.875 36.7609 171 36.4859 171C36.2109 171 35.9859 171.9 35.9859 173C35.9859 174.1 35.7609 175 35.4859 175C35.2109 175 34.9859 175.9 34.9859 177C34.9859 178.1 34.7609 179 34.4859 179C34.2109 179 33.9859 179.9 33.9859 181C33.9859 182.1 33.7609 183 33.4859 183C33.2109 183 32.9859 183.45 32.9859 184C32.9859 184.55 32.7609 185 32.4859 185C32.2109 185 31.9859 185.675 31.9859 186.5C31.9859 187.325 31.7609 188 31.4859 188C31.2109 188 30.9859 188.45 30.9859 189C30.9859 189.55 30.7609 190 30.4859 190C30.2109 190 29.9859 190.45 29.9859 191C29.9859 191.55 29.7609 192 29.4859 192C29.2109 192 28.9859 192.45 28.9859 193C28.9859 193.55 28.7609 194 28.4859 194C28.2109 194 27.9859 194.675 27.9859 195.5C27.9859 196.325 27.7609 197 27.4859 197C27.2109 197 26.9859 197.675 26.9859 198.5C26.9859 199.325 26.7609 200 26.4859 200C26.2109 200 25.9859 201.125 25.9859 202.5C25.9859 203.875 25.7609 205 25.4859 205C25.2004 205 24.9859 206.5 24.9859 208.5C24.9859 210.5 24.7714 212 24.4859 212C24.1829 212 23.9859 214.167 23.9859 217.5C23.9859 220.833 23.7889 223 23.4859 223C23.1894 223 22.9859 224.833 22.9859 227.5C22.9859 230.167 22.7824 232 22.4859 232C22.2079 232 21.9859 233.334 21.9859 235C21.9859 236.666 21.7639 238 21.4859 238C21.2109 238 20.9859 238.9 20.9859 240C20.9859 241.1 20.7609 242 20.4859 242C20.2109 242 19.9859 242.4 19.9859 242.889C19.9859 243.379 19.5359 244.104 18.9859 244.5C18.4359 244.896 17.9859 245.572 17.9859 246C17.9859 246.428 17.5359 247.104 16.9859 247.5C16.4359 247.896 15.9859 248.531 15.9859 248.91C15.9859 249.289 15.3109 250.229 14.4859 251C13.6609 251.771 12.9859 252.671 12.9859 253C12.9859 253.329 12.3109 254.229 11.4859 255C10.6609 255.771 9.9859 256.711 9.9859 257.09C9.9859 257.469 9.5359 258.104 8.9859 258.5C8.4359 258.896 7.9859 259.572 7.9859 260C7.9859 260.428 7.5359 261.104 6.9859 261.5C6.4359 261.896 5.9859 262.621 5.9859 263.111C5.9859 263.6 5.7609 264 5.4859 264C5.2109 264 4.9859 264.4 4.9859 264.889C4.9859 265.379 4.5359 266.104 3.9859 266.5C3.4359 266.896 2.9859 267.621 2.9859 268.111C2.9859 268.6 2.7609 269 2.4859 269C2.2109 269 1.9859 269.45 1.9859 270C1.9859 270.55 1.7609 271 1.4859 271C1.2109 271 0.985905 271.9 0.985905 273C0.985905 274.1 0.760905 275 0.485905 275C-0.256595 275 -0.119103 276.466 0.700397 277.285C2.0029 278.588 3.44641 278.061 6.24691 275.261C7.75341 273.754 8.9859 272.276 8.9859 271.975C8.9859 271.405 10.2049 270 10.7004 270C10.8574 270 10.9859 270.675 10.9859 271.5C10.9859 272.325 10.7609 273 10.4859 273C10.2109 273 9.9859 273.675 9.9859 274.5C9.9859 275.325 9.7609 276 9.4859 276C9.2109 276 8.9859 276.675 8.9859 277.5C8.9859 278.325 8.7609 279 8.4859 279C8.2109 279 7.9859 279.9 7.9859 281C7.9859 282.1 7.7609 283 7.4859 283C7.2109 283 6.9859 283.675 6.9859 284.5C6.9859 285.325 6.7609 286 6.4859 286C6.2109 286 5.9859 286.9 5.9859 288C5.9859 289.1 5.7609 290 5.4859 290C4.6544 290 4.92091 293.506 5.82091 294.406C6.42791 295.013 6.7119 295.072 6.8624 294.621C6.9764 294.279 7.4039 294 7.8134 294C8.7879 294 9.9859 292.779 9.9859 291.785C9.9859 291.353 10.2109 291 10.4859 291C10.7609 291 10.9859 290.55 10.9859 290C10.9859 289.45 11.2109 289 11.4859 289C11.7609 289 11.9859 288.55 11.9859 288C11.9859 287.45 12.2109 287 12.4859 287C12.7609 287 12.9859 286.325 12.9859 285.5C12.9859 284.675 13.2109 284 13.4859 284C13.7609 284 13.9859 283.55 13.9859 283C13.9859 282.45 14.2109 282 14.4859 282C14.7609 282 14.9859 282.675 14.9859 283.5C14.9859 284.325 14.7609 285 14.4859 285C14.1754 285 13.9859 287.762 13.9859 292.285C13.9859 299.628 14.3004 301 15.9859 301C16.8129 301 17.9859 299.701 17.9859 298.785C17.9859 298.353 18.2109 298 18.4859 298C18.7639 298 18.9859 296.666 18.9859 295C18.9859 293.334 19.2079 292 19.4859 292C19.7859 292 19.9859 290 19.9859 287C19.9859 282.333 20.0524 282 20.9859 282C21.9384 282 21.9859 282.333 21.9859 289C21.9859 293.333 22.1764 296 22.4859 296C22.7609 296 22.9859 296.803 22.9859 297.785C22.9859 298.768 23.3204 299.906 23.7294 300.315C24.3874 300.973 24.6174 300.914 25.7294 299.802C26.7029 298.829 26.9859 298.033 26.9859 296.272C26.9859 295.022 27.2109 294 27.4859 294C27.7824 294 27.9859 292.167 27.9859 289.5C27.9859 286.833 28.1894 285 28.4859 285C28.7609 285 28.9859 285.9 28.9859 287C28.9859 288.1 29.2109 289 29.4859 289C29.7609 289 29.9859 289.675 29.9859 290.5C29.9859 291.325 30.2109 292 30.4859 292C30.7609 292 30.9859 292.353 30.9859 292.785C30.9859 293.218 31.3234 293.909 31.7359 294.322C32.4024 294.988 32.5694 294.988 33.2359 294.322C33.8514 293.706 33.9859 291.817 33.9859 283.785C33.9859 277.595 34.1694 274 34.4859 274C34.8054 274 34.9859 269.667 34.9859 262C34.9859 254.333 35.1664 250 35.4859 250C35.7609 250 35.9859 249.325 35.9859 248.5C35.9859 247.675 36.2109 247 36.4859 247C36.7609 247 36.9859 246.55 36.9859 246C36.9859 245.45 37.2109 245 37.4859 245C37.7609 245 37.9859 244.325 37.9859 243.5C37.9859 242.675 38.2109 242 38.4859 242C38.7609 242 38.9859 241.55 38.9859 241C38.9859 240.45 39.2109 240 39.4859 240C39.7609 240 39.9859 239.55 39.9859 239C39.9859 238.45 40.2109 238 40.4859 238C40.7609 238 40.9859 237.6 40.9859 237.111C40.9859 236.621 41.4359 235.896 41.9859 235.5C42.5359 235.104 42.9859 234.379 42.9859 233.889C42.9859 233.4 43.2109 233 43.4859 233C43.7609 233 43.9859 232.55 43.9859 232C43.9859 231.45 44.2109 231 44.4859 231C44.7609 231 44.9859 230.55 44.9859 230C44.9859 229.45 45.2109 229 45.4859 229C45.7609 229 45.9859 228.55 45.9859 228C45.9859 227.45 46.2109 227 46.4859 227C46.7609 227 46.9859 226.55 46.9859 226C46.9859 225.45 47.2109 225 47.4859 225C47.7609 225 47.9859 224.55 47.9859 224C47.9859 223.45 48.2109 223 48.4859 223C48.7609 223 48.9859 222.55 48.9859 222C48.9859 221.45 49.2109 221 49.4859 221C49.7609 221 49.9859 220.55 49.9859 220C49.9859 219.45 50.2109 219 50.4859 219C50.7609 219 50.9859 218.325 50.9859 217.5C50.9859 216.675 51.2109 216 51.4859 216C51.7609 216 51.9859 215.55 51.9859 215C51.9859 214.45 52.2109 214 52.4859 214C52.7609 214 52.9859 213.325 52.9859 212.5C52.9859 211.675 53.2109 211 53.4859 211C53.7609 211 53.9859 210.325 53.9859 209.5C53.9859 208.675 54.2109 208 54.4859 208C54.7609 208 54.9859 207.325 54.9859 206.5C54.9859 205.675 55.2109 205 55.4859 205C55.7609 205 55.9859 204.1 55.9859 203C55.9859 201.9 56.2109 201 56.4859 201C56.7609 201 56.9859 199.875 56.9859 198.5C56.9859 197.125 57.2109 196 57.4859 196C57.7984 196 57.9859 193 57.9859 188C57.9859 183 58.1734 180 58.4859 180C58.7609 180 58.9859 178.875 58.9859 177.5C58.9859 176.125 59.2109 175 59.4859 175C59.7609 175 59.9859 173.875 59.9859 172.5C59.9859 171.125 60.2109 170 60.4859 170C60.7609 170 60.9859 169.55 60.9859 169C60.9859 168.45 61.2109 168 61.4859 168C61.7609 168 61.9859 167.421 61.9859 166.714C61.9859 165.556 62.9684 164 63.7004 164C63.8574 164 63.9859 166.7 63.9859 170C63.9859 173.667 64.1804 176 64.4859 176C64.7984 176 64.9859 179 64.9859 184C64.9859 189 65.1734 192 65.4859 192C65.8064 192 65.9859 196.667 65.9859 205C65.9859 213.333 65.8064 218 65.4859 218C65.2109 218 64.9859 219.125 64.9859 220.5C64.9859 221.875 64.7609 223 64.4859 223C64.2109 223 63.9859 223.675 63.9859 224.5C63.9859 225.325 63.7609 226 63.4859 226C63.2109 226 62.9859 226.675 62.9859 227.5C62.9859 228.325 62.7609 229 62.4859 229C62.2109 229 61.9859 229.675 61.9859 230.5C61.9859 231.325 61.7609 232 61.4859 232C61.2109 232 60.9859 232.675 60.9859 233.5C60.9859 234.325 60.7609 235 60.4859 235C60.2109 235 59.9859 235.9 59.9859 237C59.9859 238.1 59.7609 239 59.4859 239C59.2109 239 58.9859 239.675 58.9859 240.5C58.9859 241.325 58.7609 242 58.4859 242C58.2109 242 57.9859 242.9 57.9859 244C57.9859 245.1 57.7609 246 57.4859 246C57.2109 246 56.9859 247.125 56.9859 248.5C56.9859 249.875 56.7609 251 56.4859 251C56.2109 251 55.9859 252.125 55.9859 253.5C55.9859 254.875 55.7609 256 55.4859 256C55.1859 256 54.9859 258 54.9859 261C54.9859 264 54.7859 266 54.4859 266C54.2004 266 53.9859 267.5 53.9859 269.5C53.9859 271.5 54.2004 273 54.4859 273C54.7889 273 54.9859 275.167 54.9859 278.5C54.9859 281.833 55.1829 284 55.4859 284C55.7774 284 55.9859 285.667 55.9859 288C55.9859 290.333 56.1944 292 56.4859 292C56.7774 292 56.9859 293.667 56.9859 296C56.9859 298.333 57.1944 300 57.4859 300C57.7774 300 57.9859 301.667 57.9859 304C57.9859 306.333 58.1944 308 58.4859 308C58.7774 308 58.9859 309.667 58.9859 312C58.9859 314.333 59.1944 316 59.4859 316C59.7639 316 59.9859 317.334 59.9859 319C59.9859 320.666 60.2079 322 60.4859 322C60.7714 322 60.9859 323.5 60.9859 325.5C60.9859 327.5 61.2004 329 61.4859 329C61.7639 329 61.9859 330.334 61.9859 332C61.9859 333.666 62.2079 335 62.4859 335C62.7609 335 62.9859 336.125 62.9859 337.5C62.9859 338.875 63.2109 340 63.4859 340C63.7609 340 63.9859 340.9 63.9859 342C63.9859 343.1 64.2109 344 64.4859 344C64.7639 344 64.9859 345.334 64.9859 347C64.9859 348.666 65.2079 350 65.4859 350C65.7859 350 65.9859 352 65.9859 355C65.9859 358 66.1859 360 66.4859 360C66.7994 360 66.9859 363.167 66.9859 368.5C66.9859 373.833 67.1724 377 67.4859 377C67.7774 377 67.9859 378.667 67.9859 381C67.9859 383.333 67.7774 385 67.4859 385C67.2109 385 66.9859 385.675 66.9859 386.5C66.9859 387.325 66.7609 388 66.4859 388C66.2109 388 65.9859 388.9 65.9859 390C65.9859 391.1 65.7609 392 65.4859 392C65.2109 392 64.9859 392.675 64.9859 393.5C64.9859 394.325 64.7609 395 64.4859 395C64.2109 395 63.9859 396.125 63.9859 397.5C63.9859 398.875 63.7609 400 63.4859 400C63.1784 400 62.9859 402.5 62.9859 406.5C62.9859 410.5 63.1784 413 63.4859 413C63.7714 413 63.9859 414.5 63.9859 416.5C63.9859 418.5 64.2004 420 64.4859 420C64.7609 420 64.9859 421.125 64.9859 422.5C64.9859 423.875 65.2109 425 65.4859 425C65.7609 425 65.9859 425.9 65.9859 427C65.9859 428.1 66.2109 429 66.4859 429C66.7609 429 66.9859 429.9 66.9859 431C66.9859 432.1 67.2109 433 67.4859 433C67.7609 433 67.9859 433.675 67.9859 434.5C67.9859 435.325 68.2109 436 68.4859 436C68.7609 436 68.9859 436.675 68.9859 437.5C68.9859 438.325 69.2109 439 69.4859 439C69.7609 439 69.9859 439.675 69.9859 440.5C69.9859 441.325 70.2109 442 70.4859 442C70.7609 442 70.9859 442.9 70.9859 444C70.9859 445.1 71.2109 446 71.4859 446C71.7609 446 71.9859 446.675 71.9859 447.5C71.9859 448.325 72.2109 449 72.4859 449C72.7609 449 72.9859 449.675 72.9859 450.5C72.9859 451.325 73.2109 452 73.4859 452C73.7609 452 73.9859 452.675 73.9859 453.5C73.9859 454.325 74.2109 455 74.4859 455C74.7609 455 74.9859 455.675 74.9859 456.5C74.9859 457.325 75.2109 458 75.4859 458C75.7609 458 75.9859 458.675 75.9859 459.5C75.9859 460.325 76.2109 461 76.4859 461C76.7609 461 76.9859 461.9 76.9859 463C76.9859 464.1 77.2109 465 77.4859 465C77.7609 465 77.9859 466.125 77.9859 467.5C77.9859 468.875 78.2109 470 78.4859 470C78.8009 470 78.9859 473.333 78.9859 479C78.9859 484.667 78.8009 488 78.4859 488C78.2109 488 77.9859 488.45 77.9859 489C77.9859 489.55 77.7609 490 77.4859 490C77.2109 490 76.9859 490.675 76.9859 491.5C76.9859 492.325 76.7609 493 76.4859 493C76.2109 493 75.9859 493.45 75.9859 494C75.9859 494.55 75.7609 495 75.4859 495C75.2109 495 74.9859 495.675 74.9859 496.5C74.9859 497.325 74.7609 498 74.4859 498C74.2109 498 73.9859 498.9 73.9859 500C73.9859 501.1 73.7609 502 73.4859 502C73.2109 502 72.9859 503.022 72.9859 504.272C72.9859 507.201 74.5944 509 77.2134 509C78.1884 509 78.9859 509.225 78.9859 509.5C78.9859 509.778 80.3194 510 81.9859 510C83.6524 510 84.9859 510.222 84.9859 510.5C84.9859 511.241 89.8444 511.124 90.1944 510.375C90.4274 509.875 90.5444 509.875 90.7774 510.375C90.9379 510.718 91.4819 511 91.9859 511C92.4899 511 93.0339 511.281 93.1944 511.625C93.4274 512.125 93.5444 512.125 93.7774 511.625C94.1224 510.887 97.9859 510.771 97.9859 511.5C97.9859 512.558 101.51 512.021 102.758 510.772C103.812 509.719 103.986 509.081 103.986 506.272C103.986 504.424 103.768 503 103.486 503C103.211 503 102.986 502.325 102.986 501.5C102.986 500.675 102.761 500 102.486 500C102.211 500 101.986 499.325 101.986 498.5C101.986 497.675 101.761 497 101.486 497C101.211 497 100.986 496.325 100.986 495.5C100.986 494.675 100.761 494 100.486 494C100.211 494 99.9859 493.325 99.9859 492.5C99.9859 491.675 99.7609 491 99.4859 491C99.2079 491 98.9859 489.666 98.9859 488C98.9859 486.334 98.7639 485 98.4859 485C98.2004 485 97.9859 483.5 97.9859 481.5C97.9859 479.5 97.7714 478 97.4859 478C97.2109 478 96.9859 476.875 96.9859 475.5C96.9859 474.125 96.7609 473 96.4859 473C96.2109 473 95.9859 471.875 95.9859 470.5C95.9859 469.125 95.7609 468 95.4859 468C95.2109 468 94.9859 467.1 94.9859 466C94.9859 464.9 94.7609 464 94.4859 464C94.2109 464 93.9859 463.1 93.9859 462C93.9859 460.9 93.7609 460 93.4859 460C93.1684 460 92.9859 456.167 92.9859 449.5C92.9859 442.833 93.1684 439 93.4859 439C93.7889 439 93.9859 436.833 93.9859 433.5C93.9859 430.167 94.1829 428 94.4859 428C94.7994 428 94.9859 424.833 94.9859 419.5C94.9859 414.167 94.7994 411 94.4859 411C94.1894 411 93.9859 409.167 93.9859 406.5C93.9859 403.833 93.7824 402 93.4859 402C93.1724 402 92.9859 398.833 92.9859 393.5C92.9859 388.167 93.1724 385 93.4859 385C93.7639 385 93.9859 383.666 93.9859 382C93.9859 380.334 94.2079 379 94.4859 379C94.7609 379 94.9859 377.875 94.9859 376.5C94.9859 375.125 95.2109 374 95.4859 374C95.7609 374 95.9859 372.875 95.9859 371.5C95.9859 370.125 96.2109 369 96.4859 369C96.7639 369 96.9859 367.666 96.9859 366C96.9859 364.334 97.2079 363 97.4859 363C97.7714 363 97.9859 361.5 97.9859 359.5C97.9859 357.5 98.2004 356 98.4859 356C98.7774 356 98.9859 354.333 98.9859 352C98.9859 349.667 99.1944 348 99.4859 348C99.7714 348 99.9859 346.5 99.9859 344.5C99.9859 342.5 100.2 341 100.486 341C100.771 341 100.986 339.5 100.986 337.5C100.986 335.5 101.2 334 101.486 334C101.771 334 101.986 332.5 101.986 330.5C101.986 328.5 102.2 327 102.486 327C102.786 327 102.986 325 102.986 322C102.986 319 103.186 317 103.486 317C103.782 317 103.986 315.167 103.986 312.5C103.986 309.833 104.189 308 104.486 308C104.797 308 104.986 305.167 104.986 300.5V293H110.986V300.5C110.986 305.167 111.175 308 111.486 308C111.782 308 111.986 309.833 111.986 312.5C111.986 315.167 112.189 317 112.486 317C112.786 317 112.986 319 112.986 322C112.986 325 113.186 327 113.486 327C113.771 327 113.986 328.5 113.986 330.5C113.986 332.5 114.2 334 114.486 334C114.771 334 114.986 335.5 114.986 337.5C114.986 339.5 115.2 341 115.486 341C115.771 341 115.986 342.5 115.986 344.5C115.986 346.5 116.2 348 116.486 348C116.771 348 116.986 349.5 116.986 351.5C116.986 353.5 117.2 355 117.486 355C117.777 355 117.986 356.667 117.986 359C117.986 361.333 118.194 363 118.486 363C118.764 363 118.986 364.334 118.986 366C118.986 367.666 119.208 369 119.486 369C119.761 369 119.986 370.125 119.986 371.5C119.986 372.875 120.211 374 120.486 374C120.761 374 120.986 375.125 120.986 376.5C120.986 377.875 121.211 379 121.486 379C121.761 379 121.986 380.125 121.986 381.5C121.986 382.875 122.211 384 122.486 384C122.801 384 122.986 387.333 122.986 393C122.986 398.667 122.801 402 122.486 402C122.189 402 121.986 403.833 121.986 406.5C121.986 409.167 121.782 411 121.486 411C121.172 411 120.986 414.167 120.986 419.5C120.986 424.833 121.172 428 121.486 428C121.786 428 121.986 430 121.986 433C121.986 436 122.186 438 122.486 438C122.804 438 122.986 442 122.986 449C122.986 456 122.804 460 122.486 460C122.211 460 121.986 460.9 121.986 462C121.986 463.1 121.761 464 121.486 464C121.211 464 120.986 464.9 120.986 466C120.986 467.1 120.761 468 120.486 468C120.211 468 119.986 469.125 119.986 470.5C119.986 471.875 119.761 473 119.486 473C119.208 473 118.986 474.334 118.986 476C118.986 477.666 118.764 479 118.486 479C118.208 479 117.986 480.334 117.986 482C117.986 483.666 117.764 485 117.486 485C117.208 485 116.986 486.334 116.986 488C116.986 489.666 116.764 491 116.486 491C116.211 491 115.986 491.675 115.986 492.5C115.986 493.325 115.761 494 115.486 494C115.211 494 114.986 494.675 114.986 495.5C114.986 496.325 114.761 497 114.486 497C114.211 497 113.986 497.675 113.986 498.5C113.986 499.325 113.761 500 113.486 500C113.211 500 112.986 500.675 112.986 501.5C112.986 502.325 112.761 503 112.486 503C112.203 503 111.986 504.428 111.986 506.285C111.986 509.664 112.613 511 114.2 511C114.632 511 114.986 511.225 114.986 511.5C114.986 511.775 115.661 512 116.486 512C117.311 512 117.986 511.775 117.986 511.5C117.986 510.771 121.849 510.887 122.194 511.625C122.427 512.125 122.544 512.125 122.777 511.625C122.938 511.281 123.482 511 123.986 511C124.49 511 125.034 510.718 125.194 510.375C125.427 509.875 125.544 509.875 125.777 510.375C126.127 511.124 130.986 511.241 130.986 510.5C130.986 510.222 132.319 510 133.986 510C135.652 510 136.986 509.778 136.986 509.5C136.986 509.225 137.783 509 138.758 509C141.555 509 142.986 507.231 142.986 503.772C142.986 502.247 142.761 501 142.486 501C142.211 501 141.986 500.325 141.986 499.5C141.986 498.675 141.761 498 141.486 498C141.211 498 140.986 497.325 140.986 496.5C140.986 495.675 140.761 495 140.486 495C140.211 495 139.986 494.55 139.986 494C139.986 493.45 139.761 493 139.486 493C139.211 493 138.986 492.325 138.986 491.5C138.986 490.675 138.761 490 138.486 490C138.211 490 137.986 489.55 137.986 489C137.986 488.45 137.761 488 137.486 488C137.172 488 136.986 484.833 136.986 479.5C136.986 474.167 137.172 471 137.486 471C137.764 471 137.986 469.666 137.986 468C137.986 466.334 138.208 465 138.486 465C138.761 465 138.986 464.325 138.986 463.5C138.986 462.675 139.211 462 139.486 462C139.761 462 139.986 461.325 139.986 460.5C139.986 459.675 140.211 459 140.486 459C140.761 459 140.986 458.1 140.986 457C140.986 455.9 141.211 455 141.486 455C141.761 455 141.986 454.325 141.986 453.5C141.986 452.675 142.211 452 142.486 452C142.761 452 142.986 451.325 142.986 450.5C142.986 449.675 143.211 449 143.486 449C143.761 449 143.986 448.325 143.986 447.5C143.986 446.675 144.211 446 144.486 446C144.761 446 144.986 445.325 144.986 444.5C144.986 443.675 145.211 443 145.486 443C145.761 443 145.986 442.1 145.986 441C145.986 439.9 146.211 439 146.486 439C146.761 439 146.986 438.325 146.986 437.5C146.986 436.675 147.211 436 147.486 436C147.761 436 147.986 435.325 147.986 434.5C147.986 433.675 148.211 433 148.486 433C148.761 433 148.986 432.1 148.986 431C148.986 429.9 149.211 429 149.486 429C149.761 429 149.986 428.1 149.986 427C149.986 425.9 150.211 425 150.486 425C150.761 425 150.986 423.875 150.986 422.5C150.986 421.125 151.211 420 151.486 420C151.764 420 151.986 418.666 151.986 417C151.986 415.334 152.208 414 152.486 414C152.795 414 152.986 411.333 152.986 407C152.986 402.667 152.795 400 152.486 400C152.211 400 151.986 398.875 151.986 397.5C151.986 396.125 151.761 395 151.486 395C151.211 395 150.986 394.1 150.986 393C150.986 391.9 150.761 391 150.486 391C150.211 391 149.986 390.325 149.986 389.5C149.986 388.675 149.761 388 149.486 388C149.211 388 148.986 387.325 148.986 386.5C148.986 385.675 148.761 385 148.486 385C148.194 385 147.986 383.333 147.986 381C147.986 378.667 148.194 377 148.486 377C148.798 377 148.986 374 148.986 369C148.986 364 149.173 361 149.486 361C149.789 361 149.986 358.833 149.986 355.5C149.986 352.167 150.183 350 150.486 350C150.764 350 150.986 348.666 150.986 347C150.986 345.334 151.208 344 151.486 344C151.761 344 151.986 343.1 151.986 342C151.986 340.9 152.211 340 152.486 340C152.761 340 152.986 338.875 152.986 337.5C152.986 336.125 153.211 335 153.486 335C153.764 335 153.986 333.666 153.986 332C153.986 330.334 154.208 329 154.486 329C154.771 329 154.986 327.5 154.986 325.5C154.986 323.5 155.2 322 155.486 322C155.764 322 155.986 320.666 155.986 319C155.986 317.334 156.208 316 156.486 316C156.777 316 156.986 314.333 156.986 312C156.986 309.667 157.194 308 157.486 308C157.777 308 157.986 306.333 157.986 304C157.986 301.667 158.194 300 158.486 300C158.777 300 158.986 298.333 158.986 296C158.986 293.667 159.194 292 159.486 292C159.777 292 159.986 290.333 159.986 288C159.986 285.667 160.194 284 160.486 284C160.789 284 160.986 281.833 160.986 278.5C160.986 275.167 161.183 273 161.486 273C161.771 273 161.986 271.5 161.986 269.5C161.986 267.5 161.771 266 161.486 266C161.186 266 160.986 264 160.986 261C160.986 258 160.786 256 160.486 256C160.211 256 159.986 254.875 159.986 253.5C159.986 252.125 159.761 251 159.486 251C159.211 251 158.986 249.875 158.986 248.5C158.986 247.125 158.761 246 158.486 246C158.211 246 157.986 245.1 157.986 244C157.986 242.9 157.761 242 157.486 242C157.211 242 156.986 241.325 156.986 240.5C156.986 239.675 156.761 239 156.486 239C156.211 239 155.986 238.1 155.986 237C155.986 235.9 155.761 235 155.486 235C155.211 235 154.986 234.325 154.986 233.5C154.986 232.675 154.761 232 154.486 232C154.211 232 153.986 231.325 153.986 230.5C153.986 229.675 153.761 229 153.486 229C153.211 229 152.986 228.325 152.986 227.5C152.986 226.675 152.761 226 152.486 226C152.211 226 151.986 225.325 151.986 224.5C151.986 223.675 151.761 223 151.486 223C151.211 223 150.986 221.875 150.986 220.5C150.986 219.125 150.761 218 150.486 218C150.165 218 149.986 213.333 149.986 205C149.986 196.667 150.165 192 150.486 192C150.798 192 150.986 189 150.986 184C150.986 179 151.173 176 151.486 176C151.791 176 151.986 173.667 151.986 170C151.986 166.7 152.114 164 152.271 164C152.858 164 153.986 165.456 153.986 166.214C153.986 166.646 154.211 167 154.486 167C154.761 167 154.986 167.675 154.986 168.5C154.986 169.325 155.211 170 155.486 170C155.761 170 155.986 171.125 155.986 172.5C155.986 173.875 156.211 175 156.486 175C156.761 175 156.986 176.125 156.986 177.5C156.986 178.875 157.211 180 157.486 180C157.798 180 157.986 183 157.986 188C157.986 193 158.173 196 158.486 196C158.761 196 158.986 197.125 158.986 198.5C158.986 199.875 159.211 201 159.486 201C159.761 201 159.986 201.9 159.986 203C159.986 204.1 160.211 205 160.486 205C160.761 205 160.986 205.675 160.986 206.5C160.986 207.325 161.211 208 161.486 208C161.761 208 161.986 208.675 161.986 209.5C161.986 210.325 162.211 211 162.486 211C162.761 211 162.986 211.675 162.986 212.5C162.986 213.325 163.211 214 163.486 214C163.761 214 163.986 214.45 163.986 215C163.986 215.55 164.211 216 164.486 216C164.761 216 164.986 216.675 164.986 217.5C164.986 218.325 165.211 219 165.486 219C165.761 219 165.986 219.45 165.986 220C165.986 220.55 166.211 221 166.486 221C166.761 221 166.986 221.45 166.986 222C166.986 222.55 167.211 223 167.486 223C167.761 223 167.986 223.45 167.986 224C167.986 224.55 168.211 225 168.486 225C168.761 225 168.986 225.45 168.986 226C168.986 226.55 169.211 227 169.486 227C169.761 227 169.986 227.45 169.986 228C169.986 228.55 170.211 229 170.486 229C170.761 229 170.986 229.45 170.986 230C170.986 230.55 171.211 231 171.486 231C171.761 231 171.986 231.45 171.986 232C171.986 232.55 172.211 233 172.486 233C172.761 233 172.986 233.4 172.986 233.889C172.986 234.379 173.436 235.104 173.986 235.5C174.536 235.896 174.986 236.621 174.986 237.111C174.986 237.6 175.211 238 175.486 238C175.761 238 175.986 238.45 175.986 239C175.986 239.55 176.211 240 176.486 240C176.761 240 176.986 240.45 176.986 241C176.986 241.55 177.211 242 177.486 242C177.761 242 177.986 242.45 177.986 243C177.986 243.55 178.211 244 178.486 244C178.761 244 178.986 244.675 178.986 245.5C178.986 246.325 179.211 247 179.486 247C179.761 247 179.986 247.675 179.986 248.5C179.986 249.325 180.211 250 180.486 250C180.761 250 180.986 250.656 180.986 251.458C180.986 252.26 181.267 253.048 181.611 253.208C182.111 253.441 182.111 253.559 181.611 253.792C180.818 254.162 180.695 274 181.486 274C181.802 274 181.986 277.595 181.986 283.785C181.986 291.817 182.12 293.706 182.736 294.322C183.402 294.988 183.569 294.988 184.236 294.322C184.648 293.909 184.986 293.218 184.986 292.785C184.986 292.353 185.211 292 185.486 292C185.761 292 185.986 291.325 185.986 290.5C185.986 289.675 186.211 289 186.486 289C186.761 289 186.986 288.1 186.986 287C186.986 285.9 187.211 285 187.486 285C187.782 285 187.986 286.833 187.986 289.5C187.986 292.167 188.189 294 188.486 294C188.761 294 188.986 295.022 188.986 296.272C188.986 298.033 189.269 298.829 190.242 299.802C191.354 300.914 191.584 300.973 192.242 300.315C192.651 299.906 192.986 298.768 192.986 297.785C192.986 296.803 193.211 296 193.486 296C193.795 296 193.986 293.333 193.986 289C193.986 282.333 194.033 282 194.986 282C195.919 282 195.986 282.333 195.986 287C195.986 290 196.186 292 196.486 292C196.764 292 196.986 293.334 196.986 295C196.986 296.666 197.208 298 197.486 298C197.761 298 197.986 298.353 197.986 298.785C197.986 299.701 199.159 301 199.986 301C201.671 301 201.986 299.628 201.986 292.285C201.986 287.762 201.796 285 201.486 285C201.211 285 200.986 284.325 200.986 283.5C200.986 282.675 201.211 282 201.486 282C201.761 282 201.986 282.45 201.986 283C201.986 283.55 202.211 284 202.486 284C202.761 284 202.986 284.675 202.986 285.5C202.986 286.325 203.211 287 203.486 287C203.761 287 203.986 287.45 203.986 288C203.986 288.55 204.211 289 204.486 289C204.761 289 204.986 289.45 204.986 290C204.986 290.55 205.211 291 205.486 291C205.761 291 205.986 291.353 205.986 291.785C205.986 292.779 207.184 294 208.158 294C208.568 294 208.995 294.279 209.109 294.621C209.26 295.072 209.544 295.013 210.151 294.406C211.051 293.506 211.317 290 210.486 290C210.211 290 209.986 289.1 209.986 288C209.986 286.9 209.761 286 209.486 286C209.211 286 208.986 285.325 208.986 284.5C208.986 283.675 208.761 283 208.486 283C208.211 283 207.986 282.1 207.986 281C207.986 279.9 207.761 279 207.486 279C207.211 279 206.986 278.325 206.986 277.5C206.986 276.675 206.761 276 206.486 276C206.211 276 205.986 275.325 205.986 274.5C205.986 273.675 205.761 273 205.486 273C205.211 273 204.986 272.325 204.986 271.5C204.986 270.675 205.114 270 205.271 270C205.767 270 206.986 271.405 206.986 271.975C206.986 272.276 208.218 273.754 209.725 275.261C212.525 278.061 213.969 278.588 215.271 277.285C216.091 276.466 216.228 275 215.486 275C215.211 275 214.986 274.1 214.986 273C214.986 271.9 214.761 271 214.486 271C214.211 271 213.986 270.55 213.986 270C213.986 269.45 213.761 269 213.486 269C213.211 269 212.986 268.6 212.986 268.111C212.986 267.621 212.536 266.896 211.986 266.5C211.436 266.104 210.986 265.379 210.986 264.889C210.986 264.4 210.761 264 210.486 264C210.211 264 209.986 263.6 209.986 263.111C209.986 262.621 209.536 261.896 208.986 261.5C208.436 261.104 207.986 260.428 207.986 260C207.986 259.572 207.536 258.896 206.986 258.5C206.436 258.104 205.986 257.469 205.986 257.09C205.986 256.711 205.311 255.771 204.486 255C203.661 254.229 202.986 253.329 202.986 253C202.986 252.671 202.311 251.771 201.486 251C200.661 250.229 199.986 249.289 199.986 248.91C199.986 248.531 199.536 247.896 198.986 247.5C198.436 247.104 197.986 246.428 197.986 246C197.986 245.572 197.536 244.896 196.986 244.5C196.436 244.104 195.986 243.379 195.986 242.889C195.986 242.4 195.761 242 195.486 242C195.211 242 194.986 241.1 194.986 240C194.986 238.9 194.761 238 194.486 238C194.208 238 193.986 236.666 193.986 235C193.986 233.334 193.764 232 193.486 232C193.189 232 192.986 230.167 192.986 227.5C192.986 224.833 192.782 223 192.486 223C192.183 223 191.986 220.833 191.986 217.5C191.986 214.167 191.789 212 191.486 212C191.2 212 190.986 210.5 190.986 208.5C190.986 206.5 190.771 205 190.486 205C190.211 205 189.986 203.875 189.986 202.5C189.986 201.125 189.761 200 189.486 200C189.211 200 188.986 199.325 188.986 198.5C188.986 197.675 188.761 197 188.486 197C188.211 197 187.986 196.325 187.986 195.5C187.986 194.675 187.761 194 187.486 194C187.211 194 186.986 193.55 186.986 193C186.986 192.45 186.761 192 186.486 192C186.211 192 185.986 191.55 185.986 191C185.986 190.45 185.761 190 185.486 190C185.211 190 184.986 189.55 184.986 189C184.986 188.45 184.761 188 184.486 188C184.211 188 183.986 187.325 183.986 186.5C183.986 185.675 183.761 185 183.486 185C183.211 185 182.986 184.55 182.986 184C182.986 183.45 182.761 183 182.486 183C182.211 183 181.986 182.1 181.986 181C181.986 179.9 181.761 179 181.486 179C181.211 179 180.986 178.1 180.986 177C180.986 175.9 180.761 175 180.486 175C180.211 175 179.986 174.1 179.986 173C179.986 171.9 179.761 171 179.486 171C179.211 171 178.986 169.875 178.986 168.5C178.986 167.125 178.761 166 178.486 166C178.2 166 177.986 164.5 177.986 162.5C177.986 160.5 177.771 159 177.486 159C177.16 159 176.986 150.833 176.986 135.5C176.986 120.167 176.812 112 176.486 112C176.211 112 175.986 110.875 175.986 109.5C175.986 108.125 175.761 107 175.486 107C175.211 107 174.986 106.1 174.986 105C174.986 103.9 174.761 103 174.486 103C174.211 103 173.986 102.55 173.986 102C173.986 101.45 173.761 101 173.486 101C173.211 101 172.986 100.55 172.986 100C172.986 99.45 172.761 99 172.486 99C172.211 99 171.986 98.5995 171.986 98.1105C171.986 97.621 171.536 96.8965 170.986 96.5C170.436 96.1035 169.986 95.4865 169.986 95.129C169.986 94.2185 164.673 89 163.747 89C163.328 89 162.986 88.775 162.986 88.5C162.986 88.225 162.536 88 161.986 88C161.436 88 160.986 87.775 160.986 87.5C160.986 87.225 160.536 87 159.986 87C159.436 87 158.986 86.775 158.986 86.5C158.986 86.225 158.086 86 156.986 86C155.886 86 154.986 85.775 154.986 85.5C154.986 85.222 153.652 85 151.986 85C150.319 85 148.986 84.778 148.986 84.5C148.986 84.225 147.861 84 146.486 84C145.111 84 143.986 83.775 143.986 83.5C143.986 83.225 143.311 83 142.486 83C141.661 83 140.986 82.775 140.986 82.5C140.986 82.225 140.311 82 139.486 82C138.661 82 137.986 81.775 137.986 81.5C137.986 81.225 137.536 81 136.986 81C136.436 81 135.986 80.775 135.986 80.5C135.986 80.225 135.585 80 135.096 80C134.607 80 133.882 79.55 133.486 79C133.089 78.45 132.467 78 132.103 78C131.19 78 128.986 75.7175 128.986 74.7725C128.986 74.3475 128.761 74 128.486 74C128.211 74 127.986 73.325 127.986 72.5C127.986 71.675 127.761 71 127.486 71C127.176 71 126.986 68.3335 126.986 64C126.986 59.6665 127.176 57 127.486 57C127.761 57 127.986 56.5995 127.986 56.1105C127.986 55.621 128.436 54.8965 128.986 54.5C129.536 54.1035 129.986 53.379 129.986 52.8895C129.986 52.4005 130.211 52 130.486 52C130.761 52 130.986 51.325 130.986 50.5C130.986 49.675 131.211 49 131.486 49C131.761 49 131.986 48.42 131.986 47.711C131.986 46.8605 132.666 45.7675 133.986 44.5C135.086 43.443 135.986 42.2235 135.986 41.789C135.986 41.355 136.211 41 136.486 41C136.761 41 136.986 39.7465 136.986 38.2145C136.986 35.3475 136.278 34 134.771 34C134.097 34 133.986 33.076 133.986 27.5C133.986 23.5 133.793 21 133.486 21C133.211 21 132.986 20.1 132.986 19C132.986 17.9 132.761 17 132.486 17C132.211 17 131.986 16.325 131.986 15.5C131.986 14.675 131.761 14 131.486 14C131.211 14 130.986 13.5995 130.986 13.1105C130.986 12.621 130.536 11.8965 129.986 11.5C129.436 11.1035 128.986 10.481 128.986 10.117C128.986 9.305 126.747 7 125.959 7C125.644 7 124.756 6.325 123.986 5.5C123.215 4.675 122.225 4 121.785 4C121.345 4 120.986 3.775 120.986 3.5C120.986 3.225 120.536 3 119.986 3C119.436 3 118.986 2.775 118.986 2.5C118.986 2.225 118.536 2 117.986 2C117.436 2 116.986 1.775 116.986 1.5C116.986 1.225 116.086 1 114.986 1C113.886 1 112.986 0.775 112.986 0.5C112.986 0.2 110.986 0 107.986 0C104.986 0 102.986 0.2 102.986 0.5Z" fill="url(#paint0_linear)"/>
<defs>
<linearGradient id="paint0_linear" x1="107.986" y1="0" x2="107.986" y2="512.064" gradientUnits="userSpaceOnUse">
<stop stop-color="#CC297B"/>
<stop offset="0.880123" stop-color="#025100"/>
</linearGradient>
</defs>
</svg>
