<svg width="418" height="512" viewBox="0 0 418 512" fill="none" xmlns="http://www.w3.org/2000/svg">
<path fill-rule="evenodd" clip-rule="evenodd" d="M159 0.5C159 0.775 158.652 1 158.227 1C157.028 1 155 3.3165 155 4.6855C155 5.3625 154.719 6.048 154.375 6.2085C153.875 6.4415 153.875 6.5585 154.375 6.7915C155.14 7.1485 155.258 14 154.5 14C154.177 14 154 19.8335 154 30.5C154 41.1665 153.823 47 153.5 47C153.225 47 153 47.9 153 49C153 50.1 153.225 51 153.5 51C153.775 51 154 51.675 154 52.5C154 53.325 154.225 54 154.5 54C154.775 54 155 54.45 155 55C155 55.6665 155.334 56 156 56C156.55 56 157 56.225 157 56.5C157 56.778 158.334 57 160 57C161.666 57 163 56.778 163 56.5C163 56.173 171.922 56 188.766 56H214.534L216.267 54.2665C217.332 53.201 218 52.0455 218 51.2665C218 50.57 218.225 50 218.5 50C218.826 50 219 42.5 219 28.5C219 14.5 218.826 7 218.5 7C218.225 7 218 6.43 218 5.7335C218 4.325 215.027 1 213.767 1C213.345 1 213 0.775 213 0.5C213 0.173 203.667 0 186 0C168.333 0 159 0.173 159 0.5ZM205 42H168V28.729C168 18.824 168.158 15.2775 168.625 14.748C169.142 14.1605 172.33 14.035 187.125 14.019L205 14V42ZM239 15.5C239 15.775 238.325 16 237.5 16C236.675 16 236 16.225 236 16.5C236 16.775 235.655 17 235.233 17C234.238 17 231 20.238 231 21.2335C231 21.655 230.775 22 230.5 22C230.174 22 230 29.5 230 43.5C230 57.5 229.826 65 229.5 65C229.179 65 229 69.8335 229 78.5C229 87.1665 228.821 92 228.5 92C228.181 92 228 96.1665 228 103.5C228 110.833 228.181 115 228.5 115C228.775 115 229 115.345 229 115.767C229 116.762 232.238 120 233.233 120C233.655 120 234 120.225 234 120.5C234 120.775 234.9 121 236 121C237.1 121 238 121.225 238 121.5C238 121.775 238.675 122 239.5 122C240.325 122 241 121.775 241 121.5C241 121.225 241.675 121 242.5 121C243.325 121 244 120.775 244 120.5C244 120.17 260.333 120 292 120C323.667 120 340 119.83 340 119.5C340 119.225 340.675 119 341.5 119C342.325 119 343 118.775 343 118.5C343 118.225 343.347 118 343.772 118C344.717 118 347 115.796 347 114.883C347 114.519 347.45 113.896 348 113.5C348.987 112.789 349 112.206 349 68.3895C349 39.13 348.829 24 348.5 24C348.225 24 348 23.55 348 23C348 22.45 347.775 22 347.5 22C347.225 22 347 21.55 347 21C347 20.4225 346.666 20 346.211 20C345.776 20 344.557 19.1 343.5 18C341.96 16.3975 341.223 16 339.789 16C338.805 16 338 15.775 338 15.5C338 15.17 321.167 15 288.5 15C255.833 15 239 15.17 239 15.5ZM101 21.5C101 21.775 100.421 22 99.7145 22C98.2675 22 97 23.034 97 24.2145C97 24.6465 96.775 25 96.5 25C96.177 25 96 30.8195 96 41.4585C96 54.136 95.8565 57.9835 95.375 58.2085C94.875 58.4415 94.875 58.5585 95.375 58.7915C95.719 58.952 96 59.6375 96 60.3145C96 60.9915 96.5525 62.0975 97.2275 62.7725L98.4545 64H118.227C131.076 64 138 63.825 138 63.5C138 63.225 138.804 63 139.786 63C141.677 63 143 62.0885 143 60.7855C143 60.3535 143.225 60 143.5 60C143.824 60 144 53.911 144 42.7335V25.4665L142.266 23.7335C141.313 22.78 140.188 22 139.766 22C139.345 22 139 21.775 139 21.5C139 21.1755 132.333 21 120 21C107.667 21 101 21.1755 101 21.5ZM133 52H107V33H133V52ZM326 96H252V89C252 84.6665 252.19 82 252.5 82C252.825 82 253 75 253 62C253 49 253.175 42 253.5 42C253.775 42 254 41.325 254 40.5V39H326V96ZM104 70.5C104 70.775 103.55 71 103 71C102.45 71 102 71.225 102 71.5C102 71.775 101.652 72 101.227 72C100.227 72 98 74.227 98 75.2275C98 75.6525 97.775 76 97.5 76C97.225 76 97 76.675 97 77.5C97 78.325 96.775 79 96.5 79C96.222 79 96 80.3335 96 82C96 83.6665 96.222 85 96.5 85C96.8 85 97 87 97 90C97 93 96.8 95 96.5 95C96.1745 95 96 102.333 96 116C96 129.667 95.8255 137 95.5 137C95.1805 137 95 141.333 95 149C95 156.667 94.8195 161 94.5 161C94.222 161 94 162.334 94 164C94 165.666 94.222 167 94.5 167C94.775 167 95 167.794 95 168.763C95 170.185 95.4335 170.96 97.237 172.763C98.467 173.994 99.817 175 100.237 175C100.656 175 101 175.225 101 175.5C101 175.796 102.833 176 105.5 176C108.167 176 110 175.796 110 175.5C110 175.17 126.167 175 157.5 175C188.833 175 205 174.83 205 174.5C205 174.225 205.9 174 207 174C208.1 174 209 173.775 209 173.5C209 173.225 209.345 173 209.767 173C210.762 173 214 169.762 214 168.766C214 168.345 214.225 168 214.5 168C214.775 168 215 167.325 215 166.5C215 165.675 215.225 165 215.5 165C215.829 165 216 150.5 216 122.5C216 94.5 215.829 80 215.5 80C215.225 80 215 79.4335 215 78.7405C215 76.982 209.018 71 207.26 71C206.567 71 206 70.775 206 70.5C206 70.17 188.667 70 155 70C121.333 70 104 70.17 104 70.5ZM360 89.5C360 89.775 359.647 90 359.215 90C358.204 90 357 91.204 357 92.2145C357 92.6465 356.775 93 356.5 93C356.176 93 356 99.4285 356 111.285C356 130.504 356.056 131 358.215 131C358.647 131 359 131.225 359 131.5C359 131.775 359.9 132 361 132C362.1 132 363 131.775 363 131.5C363 131.176 369.667 131 382 131C394.333 131 401 130.824 401 130.5C401 130.225 401.45 130 402 130C402.666 130 403 129.666 403 129C403 128.45 403.225 128 403.5 128C403.824 128 404 121.833 404 110.5C404 99.1665 403.824 93 403.5 93C403.225 93 403 92.6465 403 92.2145C403 91.204 401.796 90 400.785 90C400.353 90 400 89.775 400 89.5C400 89.175 393 89 380 89C367 89 360 89.175 360 89.5ZM192 151H119V138C119 129.667 119.18 125 119.5 125C119.822 125 120 119.5 120 109.5V94H192V151ZM393 120H367V111C367 105.333 367.185 102 367.5 102C367.775 102 368 101.55 368 101C368 100.026 368.333 100 380.5 100H393V120ZM23 112.471V119.736C23 124.246 22.8105 127 22.5 127C22.1775 127 22 132.5 22 142.5C22 152.5 21.8225 158 21.5 158C21.225 158 21 158.45 21 159C21 159.55 21.225 160 21.5 160C21.775 160 22 160.57 22 161.266C22 162.045 22.668 163.201 23.7335 164.266C25.2935 165.827 25.743 166 28.2335 166C29.755 166 31 165.775 31 165.5C31 165.173 39.922 165 56.7665 165H82.5335L84.2665 163.266C85.332 162.201 86 161.045 86 160.266C86 159.57 86.225 159 86.5 159C86.8255 159 87 151.5 87 137.5C87 123.5 86.8255 116 86.5 116C86.225 116 86 115.325 86 114.5C86 113.675 85.775 113 85.5 113C85.225 113 85 112.55 85 112C85 111.374 84.6665 111 84.1105 111C83.621 111 82.8965 110.55 82.5 110C81.7935 109.02 81.226 109.001 54.0145 109.035L26.25 109.068L23 112.471ZM73 151H36V138.5C36 130.5 36.18 126 36.5 126C36.775 126 37 125.325 37 124.5V123H73V151ZM230 129.5C230 129.775 229.653 130 229.228 130C228.227 130 226 132.227 226 133.227C226 133.652 225.775 134 225.5 134C225.176 134 225 140 225 151C225 162 224.824 168 224.5 168C224.19 168 224 170.667 224 175C224 179.333 224.19 182 224.5 182C224.775 182 225 182.348 225 182.773C225 183.198 225.553 184.098 226.228 184.773C227.281 185.826 227.919 186 230.728 186C232.576 186 234 185.782 234 185.5C234 185.173 242.924 185 259.772 185H285.546L286.772 183.773C287.447 183.098 288 182.198 288 181.773C288 181.348 288.225 181 288.5 181C288.826 181 289 172.833 289 157.5C289 142.167 288.826 134 288.5 134C288.225 134 288 133.652 288 133.227C288 132.227 285.773 130 284.772 130C284.347 130 284 129.775 284 129.5C284 129.173 274.667 129 257 129C239.333 129 230 129.173 230 129.5ZM306 138.5C306 138.775 305.55 139 305 139C304.45 139 304 139.225 304 139.5C304 139.775 303.647 140 303.215 140C302.251 140 301 141.189 301 142.104C301 142.476 300.55 143.104 300 143.5C299.413 143.924 299 144.795 299 145.611C299 146.375 298.775 147 298.5 147C298.225 147 298 148.125 298 149.5C298 150.875 298.225 152 298.5 152C298.815 152 299 155.333 299 161C299 166.667 298.815 170 298.5 170C298.176 170 298 176.667 298 189C298 201.333 297.824 208 297.5 208C297.181 208 297 212.319 297 219.958C297 229.036 296.85 231.987 296.375 232.208C295.875 232.441 295.875 232.559 296.375 232.792C296.75 232.967 297 234.064 297 235.542C297 236.894 297.225 238 297.5 238C297.775 238 298 238.345 298 238.766C298 239.762 301.238 243 302.233 243C302.655 243 303 243.225 303 243.5C303 243.796 304.833 244 307.5 244C310.167 244 312 243.796 312 243.5C312 243.174 320.167 243 335.5 243H359V312H357.5C356.675 312 356 312.225 356 312.5C356 312.775 355.1 313 354 313C352.9 313 352 313.225 352 313.5C352 313.775 351.1 314 350 314C348.9 314 348 314.225 348 314.5C348 314.775 347.1 315 346 315C344.9 315 344 315.225 344 315.5C344 315.775 343.1 316 342 316C340.9 316 340 316.225 340 316.5C340 316.775 339.1 317 338 317C336.9 317 336 317.225 336 317.5C336 317.775 335.1 318 334 318C332.9 318 332 318.225 332 318.5C332 318.775 330.875 319 329.5 319C328.125 319 327 319.225 327 319.5C327 319.775 326.1 320 325 320C323.9 320 323 320.225 323 320.5C323 320.775 322.1 321 321 321C319.9 321 319 321.225 319 321.5C319 321.775 318.1 322 317 322C315.9 322 315 322.225 315 322.5C315 322.775 314.1 323 313 323C311.9 323 311 323.225 311 323.5C311 323.775 310.1 324 309 324C307.9 324 307 324.225 307 324.5C307 324.775 306.1 325 305 325C303.9 325 303 325.225 303 325.5C303 325.775 302.1 326 301 326C299.9 326 299 326.225 299 326.5C299 326.775 298.1 327 297 327C295.9 327 295 327.225 295 327.5C295 327.775 294.1 328 293 328C291.9 328 291 328.225 291 328.5C291 328.775 290.55 329 290 329C289.029 329 289 328.667 289 317.5V306H304.5C314.5 306 320 305.822 320 305.5C320 305.225 320.795 305 321.767 305C324.259 305 327 302.259 327 299.767C327 298.795 327.225 298 327.5 298C327.825 298 328 290.833 328 277.5C328 264.167 327.825 257 327.5 257C327.225 257 327 256.205 327 255.234C327 253.884 326.591 253.057 325.267 251.734C324.314 250.78 323.189 250 322.767 250C322.345 250 322 249.775 322 249.5C322 249.173 312.667 249 295 249C277.333 249 268 249.173 268 249.5C268 249.775 267.653 250 267.228 250C266.227 250 264 252.227 264 253.227C264 253.652 263.775 254 263.5 254C263.175 254 263 261 263 274C263 287 262.825 294 262.5 294C262.215 294 262 295.5 262 297.5C262 299.5 262.215 301 262.5 301C262.775 301 263 301.584 263 302.299C263 303.098 263.577 304.138 264.5 305L266 306.401V353H210V301H227C238 301 244 300.824 244 300.5C244 300.225 244.4 300 244.889 300C245.379 300 246.104 299.55 246.5 299C246.896 298.45 247.621 298 248.111 298C248.63 298 249 297.63 249 297.111C249 296.621 249.45 295.896 250 295.5C250.697 294.998 251 294.205 251 292.889C251 291.85 251.225 291 251.5 291C251.829 291 252 276.833 252 249.5C252 222.167 251.829 208 251.5 208C251.225 208 251 207.208 251 206.24C251 204.742 250.519 204 247.759 201.24C245.977 199.458 244.177 198 243.759 198C243.341 198 243 197.775 243 197.5C243 197.17 225.333 197 191 197C156.667 197 139 197.17 139 197.5C139 197.775 138.656 198 138.237 198C136.947 198 133 202.324 133 203.737C133 204.431 132.775 205 132.5 205C132.173 205 132 214 132 231C132 248 131.827 257 131.5 257C131.181 257 131 261.333 131 269C131 276.667 130.819 281 130.5 281C130.19 281 130 283.667 130 288C130 292.333 130.19 295 130.5 295C130.775 295 131 295.569 131 296.263C131 297.986 135.014 302 136.737 302C137.431 302 138 302.225 138 302.5C138 302.775 139.125 303 140.5 303H143V333.5C143 353.5 143.172 364 143.5 364C143.775 364 144 364.675 144 365.5C144 366.325 144.225 367 144.5 367C144.775 367 145 367.45 145 368C145 368.55 145.225 369 145.5 369C145.775 369 146 369.345 146 369.767C146 370.762 149.238 374 150.234 374C150.655 374 151 374.225 151 374.5C151 374.775 151.675 375 152.5 375C153.325 375 154 375.225 154 375.5C154 375.823 159.833 376 170.5 376H187V383.785C187 391.663 186.708 393 184.986 393C184.664 393 183.771 393.675 183 394.5C182.229 395.325 181.329 396 181 396C180.671 396 179.771 396.675 179 397.5C178.229 398.325 177.334 399 177.01 399C176.686 399 175.557 399.9 174.5 401C173.443 402.1 172.314 403 171.99 403C171.666 403 170.771 403.675 170 404.5C169.229 405.325 168.289 406 167.91 406C167.531 406 166.896 406.45 166.5 407C165.923 407.802 165.205 408 162.889 408C161.296 408 160 407.775 160 407.5C160 407.225 159.55 407 159 407C158.45 407 158 406.775 158 406.5C158 406.225 157.325 406 156.5 406C155.675 406 155 405.775 155 405.5C155 405.225 154.55 405 154 405C153.45 405 153 404.775 153 404.5C153 404.225 152.325 404 151.5 404C150.675 404 150 403.775 150 403.5C150 403.225 149.55 403 149 403C148.45 403 148 402.775 148 402.5C148 402.225 147.55 402 147 402C146.45 402 146 401.775 146 401.5C146 401.225 145.325 401 144.5 401C143.675 401 143 400.775 143 400.5C143 400.225 142.55 400 142 400C141.45 400 141 399.775 141 399.5C141 399.225 140.325 399 139.5 399C138.675 399 138 398.775 138 398.5C138 398.225 137.55 398 137 398C136.45 398 136 397.775 136 397.5C136 397.225 135.325 397 134.5 397C133.675 397 133 396.775 133 396.5C133 396.225 132.55 396 132 396C131.45 396 131 395.775 131 395.5C131 395.225 130.55 395 130 395C129.45 395 129 394.775 129 394.5C129 394.225 128.55 394 128 394C127.45 394 127 393.775 127 393.5C127 393.225 126.325 393 125.5 393C124.675 393 124 392.775 124 392.5C124 392.225 123.55 392 123 392C122.45 392 122 391.775 122 391.5C122 391.225 121.55 391 121 391C120.45 391 120 390.775 120 390.5C120 390.225 119.55 390 119 390C118.45 390 118 389.775 118 389.5C118 389.225 117.325 389 116.5 389C115.675 389 115 388.775 115 388.5C115 388.225 114.55 388 114 388C113.45 388 113 387.775 113 387.5C113 387.225 112.55 387 112 387C111.45 387 111 386.775 111 386.5C111 386.225 110.646 386 110.214 386C108.106 386 108 385.247 108 370.285V356H110C111.1 356 112 355.775 112 355.5C112 355.225 112.345 355 112.766 355C114.026 355 117 351.675 117 350.267C117 349.57 117.225 349 117.5 349C117.826 349 118 341.667 118 328C118 314.333 117.826 307 117.5 307C117.225 307 117 306.205 117 305.233C117 303.043 114.247 300 112.266 300C111.57 300 111 299.775 111 299.5C111 299.173 102 299 85 299C68 299 59 299.173 59 299.5C59 299.775 58.4275 300 57.7275 300C56.089 300 54 302.089 54 303.728C54 304.428 53.775 305 53.5 305C53.225 305 53 305.675 53 306.5C53 307.325 53.225 308 53.5 308C53.775 308 54 308.45 54 309C54 309.55 53.775 310 53.5 310C53.176 310 53 316.167 53 327.5C53 338.833 52.824 345 52.5 345C52.222 345 52 346.334 52 348C52 349.666 52.222 351 52.5 351C52.775 351 53 351.572 53 352.272C53 353.911 55.089 356 56.7275 356C57.4275 356 58 356.225 58 356.5C58 356.775 58.45 357 59 357C59.55 357 60 356.775 60 356.5C60 356.181 64.3335 356 72 356H84V375.5C84 388.167 84.175 395 84.5 395C84.775 395 85 395.625 85 396.389C85 397.205 85.413 398.076 86 398.5C86.55 398.896 87 399.524 87 399.896C87 400.811 88.2505 402 89.2145 402C89.6465 402 90 402.225 90 402.5C90 402.775 90.45 403 91 403C91.55 403 92 403.225 92 403.5C92 403.775 92.45 404 93 404C93.55 404 94 404.225 94 404.5C94 404.775 94.45 405 95 405C95.55 405 96 405.225 96 405.5C96 405.775 96.45 406 97 406C97.55 406 98 406.225 98 406.5C98 406.775 98.45 407 99 407C99.55 407 100 407.225 100 407.5C100 407.775 100.675 408 101.5 408C102.325 408 103 408.225 103 408.5C103 408.775 103.45 409 104 409C104.55 409 105 409.225 105 409.5C105 409.775 105.45 410 106 410C106.55 410 107 410.225 107 410.5C107 410.775 107.45 411 108 411C108.55 411 109 411.225 109 411.5C109 411.775 109.675 412 110.5 412C111.325 412 112 412.225 112 412.5C112 412.775 112.45 413 113 413C113.55 413 114 413.225 114 413.5C114 413.775 114.45 414 115 414C115.55 414 116 414.225 116 414.5C116 414.775 116.45 415 117 415C117.55 415 118 415.225 118 415.5C118 415.775 118.675 416 119.5 416C120.325 416 121 416.225 121 416.5C121 416.775 121.45 417 122 417C122.55 417 123 417.225 123 417.5C123 417.775 123.45 418 124 418C124.55 418 125 418.225 125 418.5C125 418.775 125.675 419 126.5 419C127.325 419 128 419.225 128 419.5C128 419.775 128.45 420 129 420C129.55 420 130 420.225 130 420.5C130 420.775 130.675 421 131.5 421C132.325 421 133 421.225 133 421.5C133 421.775 133.45 422 134 422C134.55 422 135 422.225 135 422.5C135 422.775 135.675 423 136.5 423C137.325 423 138 423.225 138 423.5C138 423.775 138.45 424 139 424C139.55 424 140 424.225 140 424.5C140 424.775 140.45 425 141 425C141.55 425 142 425.225 142 425.5C142 425.775 142.675 426 143.5 426C144.325 426 145 426.225 145 426.5C145 426.775 145.45 427 146 427C146.55 427 147 427.225 147 427.5C147 427.775 147.675 428 148.5 428C149.325 428 150 428.225 150 428.5C150 428.775 150.354 429 150.786 429C153.042 429 153 428.287 153 466.715C153 490.572 153.171 503 153.5 503C153.775 503 154 503.625 154 504.389C154 505.205 154.413 506.076 155 506.5C155.55 506.896 156 507.621 156 508.111C156 508.63 156.37 509 156.889 509C157.379 509 158.104 509.45 158.5 510C158.924 510.587 159.795 511 160.611 511C161.375 511 162 511.225 162 511.5C162 511.778 163.334 512 165 512C166.666 512 168 511.778 168 511.5C168 511.225 168.625 511 169.389 511C170.205 511 171.076 510.587 171.5 510C171.896 509.45 172.524 509 172.896 509C173.811 509 175 507.749 175 506.785C175 506.353 175.225 506 175.5 506C175.775 506 176 505.325 176 504.5C176 503.675 176.225 503 176.5 503C176.829 503 177 490.576 177 466.728V430.454L178.227 429.228C178.902 428.553 179.712 428 180.027 428C180.342 428 181.229 427.325 182 426.5C182.771 425.675 183.711 425 184.09 425C184.469 425 185.104 424.55 185.5 424C185.896 423.45 186.531 423 186.91 423C187.289 423 188.229 422.325 189 421.5C189.771 420.675 190.711 420 191.09 420C191.469 420 192.104 419.55 192.5 419C192.896 418.45 193.531 418 193.91 418C194.289 418 195.229 417.325 196 416.5C196.771 415.675 197.761 415 198.201 415C198.641 415 199 414.775 199 414.5C199 414.225 199.675 414 200.5 414C201.325 414 202 413.775 202 413.5C202 413.225 202.45 413 203 413C203.55 413 204 412.775 204 412.5C204 412.225 204.348 412 204.773 412C205.773 412 208 409.773 208 408.772C208 408.347 208.225 408 208.5 408C208.775 408 209 407.55 209 407C209 406.45 209.225 406 209.5 406C209.822 406 210 400.833 210 391.5V377H243C264.667 377 276 376.829 276 376.5C276 376.225 277.075 376 278.389 376C280.205 376 280.952 375.76 281.5 375C281.896 374.45 282.515 374 282.874 374C283.784 374 288 369.694 288 368.763C288 368.344 288.225 368 288.5 368C288.811 368 289 365.167 289 360.5V353H290.5C291.325 353 292 352.775 292 352.5C292 352.225 292.9 352 294 352C295.1 352 296 351.775 296 351.5C296 351.225 296.9 351 298 351C299.1 351 300 350.775 300 350.5C300 350.225 300.9 350 302 350C303.1 350 304 349.775 304 349.5C304 349.225 304.9 349 306 349C307.1 349 308 348.775 308 348.5C308 348.225 308.9 348 310 348C311.1 348 312 347.775 312 347.5C312 347.225 312.675 347 313.5 347C314.325 347 315 346.775 315 346.5C315 346.225 315.9 346 317 346C318.1 346 319 345.775 319 345.5C319 345.225 319.9 345 321 345C322.1 345 323 344.775 323 344.5C323 344.225 323.9 344 325 344C326.1 344 327 343.775 327 343.5C327 343.225 327.9 343 329 343C330.1 343 331 342.775 331 342.5C331 342.225 332.125 342 333.5 342C334.875 342 336 341.775 336 341.5C336 341.225 336.9 341 338 341C339.1 341 340 340.775 340 340.5C340 340.225 340.9 340 342 340C343.1 340 344 339.775 344 339.5C344 339.225 344.9 339 346 339C347.1 339 348 338.775 348 338.5C348 338.225 349.125 338 350.5 338C351.875 338 353 337.775 353 337.5C353 337.225 353.9 337 355 337C356.1 337 357 336.775 357 336.5C357 336.225 357.9 336 359 336C360.1 336 361 335.775 361 335.5C361 335.225 361.9 335 363 335C364.1 335 365 334.775 365 334.5C365 334.225 365.9 334 367 334C368.1 334 369 333.775 369 333.5C369 333.225 369.9 333 371 333C372.1 333 373 332.775 373 332.5C373 332.225 373.359 332 373.799 332C374.239 332 375.229 331.325 376 330.5C376.771 329.675 377.665 329 377.987 329C378.781 329 380 327.726 380 326.896C380 326.524 380.45 325.896 381 325.5C381.76 324.952 382 324.205 382 322.389C382 321.075 382.225 320 382.5 320C382.829 320 383 306.833 383 281.5V243H395C402.667 243 407 242.819 407 242.5C407 242.225 407.9 242 409 242C410.1 242 411 241.775 411 241.5C411 241.225 411.344 241 411.763 241C413.053 241 417 236.676 417 235.263C417 234.569 417.225 234 417.5 234C417.829 234 418 219.167 418 190.5C418 161.833 417.829 147 417.5 147C417.225 147 417 146.658 417 146.24C417 145.252 410.748 139 409.759 139C409.341 139 409 138.775 409 138.5C409 138.17 391.5 138 357.5 138C323.5 138 306 138.17 306 138.5ZM275 171H238V169.5C238 168.675 238.225 168 238.5 168C238.82 168 239 163.5 239 155.5V143H275V171ZM395 219H321V207.5C321 200.167 321.181 196 321.5 196C321.824 196 322 190 322 179V162H395V219ZM13 184.5C13 184.775 11.9245 185 10.6105 185C8.7945 185 8.048 185.24 7.5 186C7.1035 186.55 6.4755 187 6.104 187C5.1885 187 4 188.25 4 189.214C4 189.646 3.775 190 3.5 190C3.225 190 3 190.45 3 191C3 191.55 2.775 192 2.5 192C2.1735 192 2 200.5 2 216.5C2 232.5 1.8265 241 1.5 241C1.1805 241 1 245.333 1 253C1 260.667 0.8195 265 0.5 265C0.184 265 0 268.5 0 274.5C0 280.5 0.184 284 0.5 284C0.775 284 1 284.345 1 284.767C1 285.762 4.238 289 5.2335 289C5.655 289 6 289.225 6 289.5C6 289.775 6.675 290 7.5 290C8.325 290 9 290.225 9 290.5C9 290.775 10.125 291 11.5 291C12.875 291 14 290.775 14 290.5C14 290.225 14.675 290 15.5 290C16.325 290 17 289.775 17 289.5C17 289.17 33.3335 289 65 289C96.6665 289 113 288.83 113 288.5C113 288.225 113.45 288 114 288C114.55 288 115 287.775 115 287.5C115 287.225 115.345 287 115.766 287C116.762 287 120 283.762 120 282.767C120 282.345 120.225 282 120.5 282C120.775 282 121 281.1 121 280C121 278.9 121.225 278 121.5 278C121.829 278 122 264.167 122 237.5C122 210.833 121.829 197 121.5 197C121.225 197 121 195.97 121 194.711C121 192.693 120.763 192.193 119 190.5C117.9 189.443 117 188.224 117 187.789C117 187.334 116.577 187 116 187C115.45 187 115 186.775 115 186.5C115 186.225 114.55 186 114 186C113.45 186 113 185.775 113 185.5C113 185.225 112.1 185 111 185C109.9 185 109 184.775 109 184.5C109 184.17 92.6665 184 61 184C29.3335 184 13 184.17 13 184.5ZM98 266H61.7145C30.9335 266 25.32 265.891 24.7145 265.285C23.8635 264.435 23.667 255 24.5 255C24.824 255 25 248.833 25 237.5C25 226.167 25.176 220 25.5 220C25.8055 220 26 217.667 26 214V208H98V266ZM228 278H154V275C154 273.334 154.222 272 154.5 272C154.823 272 155 266.167 155 255.5C155 244.833 155.177 239 155.5 239C155.816 239 156 235.5 156 229.5V220H228V278ZM313.285 263.715C313.869 264.298 314 266.867 314 277.715V291H277V277.729C277 267.824 277.158 264.277 277.625 263.748C278.558 262.689 312.228 262.657 313.285 263.715ZM186.286 301.715C186.886 302.314 187 306.4 187 327.215V352H167V301H176.286C183.667 301 185.718 301.147 186.286 301.715ZM103.286 313.715C103.869 314.297 104 316.838 104 327.5C104 338.162 103.869 340.703 103.286 341.285C102.478 342.093 99 342.267 99 341.5C99 341.215 97.5 341 95.5 341C93.5 341 92 341.215 92 341.5C92 341.82 87.5 342 79.5 342H67V328.229C67 317.924 67.1575 314.279 67.625 313.748C68.5575 312.689 102.229 312.657 103.286 313.715Z" fill="url(#paint0_linear)"/>
<defs>
<linearGradient id="paint0_linear" x1="209" y1="568.5" x2="209" y2="227" gradientUnits="userSpaceOnUse">
<stop/>
<stop offset="1" stop-color="#CC297B"/>
</linearGradient>
</defs>
</svg>
